<svg aria-hidden="true" style="width:0;height:0;position:absolute;overflow:hidden" xmlns="http://www.w3.org/2000/svg"><defs><symbol id="icon-search" viewBox="0 0 32 32"><path d="m31.008 27.231-7.58-6.447c-.784-.705-1.622-1.029-2.299-.998a11.954 11.954 0 0 0 2.87-7.787c0-6.627-5.373-12-12-12s-12 5.373-12 12 5.373 12 12 12c2.972 0 5.691-1.081 7.787-2.87-.031.677.293 1.515.998 2.299l6.447 7.58c1.104 1.226 2.907 1.33 4.007.23s.997-2.903-.23-4.007zM12 20a8 8 0 1 1 0-16 8 8 0 0 1 0 16z"/></symbol><symbol id="icon-moon" viewBox="0 0 32 32"><path d="M24.633 22.184c-8.188 0-14.82-6.637-14.82-14.82 0-2.695.773-5.188 2.031-7.363C5.02 1.969 0 8.188 0 15.645 0 24.676 7.32 32 16.352 32c7.457 0 13.68-5.023 15.648-11.844-2.18 1.254-4.672 2.028-7.367 2.028z"/></symbol><symbol id="icon-sun" viewBox="0 0 32 32"><path d="M16 26a2 2 0 0 1 2 2v2a2 2 0 1 1-4 0v-2a2 2 0 0 1 2-2zm0-20a2 2 0 0 1-2-2V2a2 2 0 1 1 4 0v2a2 2 0 0 1-2 2zm14 8a2 2 0 1 1 0 4h-2a2 2 0 1 1 0-4h2zM6 16a2 2 0 0 1-2 2H2a2 2 0 1 1 0-4h2a2 2 0 0 1 2 2zm19.899 7.071 1.414 1.414a2 2 0 1 1-2.828 2.828l-1.414-1.414a2 2 0 1 1 2.828-2.828zM6.101 8.929 4.687 7.515a2 2 0 1 1 2.828-2.828l1.414 1.414a2 2 0 1 1-2.828 2.828zm19.798 0a2 2 0 1 1-2.828-2.828l1.414-1.414a2 2 0 1 1 2.828 2.828l-1.414 1.414zM6.101 23.071a2 2 0 1 1 2.828 2.828l-1.414 1.414a2 2 0 1 1-2.828-2.828l1.414-1.414zM16 8a8 8 0 1 0 0 16 8 8 0 0 0 0-16zm0 13a5 5 0 1 1 .001-10.001A5 5 0 0 1 16 21z"/></symbol><symbol id="icon-film" viewBox="0 0 32 32"><path fill="none" stroke="#fff" style="stroke:var(--color1,#fff)" stroke-linejoin="round" stroke-linecap="round" stroke-width="1.561" d="M25.783 2.992H5.438a2.836 2.836 0 0 0-2.836 2.836v20.345a2.836 2.836 0 0 0 2.836 2.836h20.345a2.836 2.836 0 0 0 2.836-2.836V5.828a2.836 2.836 0 0 0-2.836-2.836zM9.105 2.992v26.016M22.114 2.992v26.016M2.601 16h26.016M2.602 9.496h6.504M2.602 22.504h6.504M22.114 22.504h6.504M22.114 9.496h6.504"/></symbol><symbol id="icon-close" viewBox="0 0 32 32"><path d="m17.253 16 7.369-7.369a.889.889 0 0 0-1.255-1.252l.001-.001-7.369 7.369L8.63 7.37a.893.893 0 1 0-1.263 1.26l.001.001L14.747 16l-7.379 7.369a.888.888 0 1 0 1.252 1.254l.001-.001L16 17.253l7.368 7.369a.889.889 0 0 0 1.252-1.255l.001.001-7.368-7.369z"/></symbol></defs></svg>